<?xml version="1.0" standalone="no"?>
<!DOCTYPE svg PUBLIC "-//W3C//DTD SVG 20010904//EN"
 "http://www.w3.org/TR/2001/REC-SVG-20010904/DTD/svg10.dtd">
<svg version="1.0" xmlns="http://www.w3.org/2000/svg"
 width="500.000000pt" height="500.000000pt" viewBox="0 0 500.000000 500.000000"
 preserveAspectRatio="xMidYMid meet">
<metadata>
Created by potrace 1.14, written by Peter Selinger 2001-2017
</metadata>
<g transform="translate(0.000000,500.000000) scale(0.100000,-0.100000)"
fill="#000000" stroke="none">
<path d="M2488 4855 c-2 -2 -65 -5 -141 -7 -75 -2 -137 -5 -137 -8 0 -3 -15
-6 -33 -6 -17 -1 -48 -4 -67 -7 -19 -4 -51 -9 -70 -12 -19 -4 -53 -11 -75 -17
-22 -5 -48 -12 -57 -14 -10 -2 -28 -7 -40 -10 -13 -3 -30 -7 -38 -9 -8 -2 -16
-4 -17 -5 -2 -2 -6 -3 -10 -4 -61 -14 -250 -89 -353 -139 -58 -28 -108 -50
-112 -49 -5 1 -8 -2 -8 -6 0 -5 -12 -14 -26 -20 -62 -29 -247 -158 -354 -246
-92 -77 -298 -297 -373 -398 -116 -156 -244 -379 -294 -513 -8 -22 -21 -53
-28 -70 -17 -39 -62 -181 -70 -220 l-6 -30 14 30 c8 17 24 53 36 80 12 28 26
58 32 69 6 10 20 35 31 55 12 20 30 54 41 76 12 22 23 42 26 45 4 3 33 46 66
95 33 50 67 99 76 110 216 262 382 419 584 552 39 26 72 50 73 55 2 4 12 8 22
8 11 0 23 6 27 13 9 16 308 167 329 167 8 0 14 5 14 11 0 5 4 8 8 5 5 -3 20 1
35 9 15 8 27 12 27 9 0 -2 13 2 29 10 15 8 39 17 52 20 13 2 43 11 67 20 23 8
43 15 45 15 5 -1 64 14 87 22 14 5 41 11 60 13 19 3 46 8 60 11 14 3 41 8 60
11 19 3 46 7 60 10 79 13 177 18 355 17 205 0 262 -4 368 -24 34 -6 73 -12 87
-14 14 -1 32 -5 40 -8 8 -3 31 -8 51 -11 20 -3 47 -10 60 -15 13 -5 29 -9 34
-10 6 0 35 -9 65 -18 30 -9 58 -17 63 -19 4 -1 8 -2 10 -3 1 -2 12 -4 24 -7
13 -2 44 -13 70 -25 27 -12 57 -25 68 -29 76 -31 196 -88 270 -130 60 -34 198
-123 213 -137 7 -7 17 -13 21 -13 5 0 21 -11 37 -25 16 -14 34 -29 39 -33 76
-52 318 -286 380 -366 17 -22 48 -62 71 -90 46 -59 136 -194 186 -281 44 -78
118 -230 118 -244 0 -6 5 -11 11 -11 5 0 8 3 6 8 -2 4 -15 41 -27 82 -12 41
-31 98 -43 125 -11 28 -27 68 -36 90 -57 142 -238 452 -308 530 -10 11 -31 38
-48 60 -54 73 -279 291 -376 366 -105 80 -104 80 -199 140 -132 84 -423 223
-495 236 -11 1 -29 7 -40 12 -22 11 -80 29 -114 36 -11 3 -31 7 -43 11 -13 3
-33 7 -45 10 -12 2 -33 8 -47 14 -13 5 -26 6 -29 4 -3 -3 -22 -1 -43 5 -58 15
-116 21 -249 27 -66 3 -128 6 -137 8 -9 2 -18 2 -20 1z"/>
<path d="M3697 3884 c-1 -1 -29 -5 -62 -8 -33 -3 -70 -8 -82 -11 -13 -3 -32
-7 -44 -10 -11 -2 -46 -14 -77 -25 -384 -144 -602 -559 -502 -955 29 -116 87
-236 150 -310 51 -59 141 -144 160 -150 11 -4 20 -10 20 -15 0 -5 12 -15 27
-22 33 -16 40 -34 16 -41 -26 -8 -112 -42 -158 -63 -22 -10 -42 -18 -45 -19
-3 0 -34 -15 -70 -32 -91 -44 -144 -66 -152 -65 -5 1 -8 -2 -8 -8 0 -5 -4 -10
-9 -10 -5 0 -96 -41 -203 -91 -199 -94 -455 -209 -473 -213 -5 -1 -20 -7 -31
-14 -12 -6 -24 -8 -28 -5 -3 3 -6 1 -6 -5 0 -7 -3 -11 -7 -10 -5 0 -15 -1 -23
-5 -75 -29 -282 -96 -305 -98 -5 -1 -21 -6 -35 -11 -14 -5 -36 -11 -50 -13
-14 -3 -43 -9 -65 -14 -40 -9 -90 -17 -175 -28 -138 -18 -390 -4 -515 29 -22
5 -41 10 -42 9 -2 0 -21 6 -43 14 -22 8 -40 11 -40 7 0 -4 -4 -2 -8 3 -4 6
-25 16 -47 23 -52 18 -239 112 -243 123 -2 5 -8 9 -14 9 -12 0 -102 61 -106
72 -2 4 -8 8 -14 8 -6 0 -24 12 -42 26 -54 45 -159 138 -186 164 -56 54 -58
55 -49 8 5 -24 11 -61 14 -83 4 -22 9 -47 11 -55 3 -8 8 -26 10 -40 11 -56 58
-211 91 -300 52 -138 183 -399 205 -408 4 -2 8 -9 8 -16 0 -11 133 -204 149
-216 3 -3 26 -30 51 -60 74 -92 253 -265 334 -325 15 -11 37 -29 49 -39 92
-80 374 -240 547 -309 161 -65 379 -126 468 -131 12 0 22 -3 22 -6 0 -6 51
-12 112 -14 21 -1 38 -3 38 -6 0 -10 377 -13 465 -4 28 3 67 6 88 8 66 6 63
16 -18 61 -27 15 -68 40 -91 56 -24 16 -47 29 -53 29 -6 0 -11 4 -11 9 0 4
-17 20 -37 34 -64 43 -93 68 -189 164 -187 187 -286 384 -287 568 0 78 3 98
28 153 28 63 102 142 131 142 8 0 14 4 14 8 0 15 103 36 180 37 115 2 283 -41
403 -101 l48 -25 77 34 c71 32 109 48 122 52 29 9 90 25 110 29 14 3 36 8 50
11 32 7 147 7 180 0 14 -3 34 -7 45 -9 11 -2 40 -13 64 -25 113 -58 169 -163
166 -307 -5 -215 -142 -451 -381 -658 -98 -84 -99 -85 -191 -146 -45 -30 -81
-55 -80 -57 2 -1 21 3 43 9 21 6 41 12 44 13 59 16 97 29 105 35 6 5 14 8 18
8 8 0 56 17 97 35 14 6 28 11 32 11 3 1 10 4 14 9 4 4 15 7 25 7 9 0 19 3 21
8 2 4 35 22 73 41 83 39 273 153 303 182 12 11 22 17 22 14 0 -3 46 31 102 77
177 143 358 336 469 498 24 36 46 67 49 70 24 23 155 269 195 365 26 62 85
225 90 249 2 11 12 48 21 81 69 250 61 420 -24 512 -32 34 -116 85 -147 89 -5
0 -12 2 -15 3 -13 6 -49 12 -90 16 -25 2 -45 4 -45 5 0 6 -108 4 -112 -3 -2
-4 -9 -5 -15 -1 -5 4 0 17 15 33 116 127 186 329 185 533 -2 338 -213 635
-533 752 -11 4 -20 7 -20 6 0 -1 -13 4 -30 11 -16 6 -41 13 -55 14 -14 2 -25
4 -25 5 0 4 -164 18 -168 14z"/>
<path d="M1158 2776 c-1 -2 -28 -6 -58 -9 -190 -19 -350 -143 -427 -330 -32
-77 -39 -221 -17 -307 50 -189 191 -328 384 -378 51 -13 227 -7 246 8 11 10
15 10 10 2 -9 -15 95 30 147 64 47 31 130 116 148 152 7 15 18 34 24 42 46 62
68 272 39 372 -25 84 -73 164 -136 229 -32 32 -63 59 -68 59 -5 0 -15 6 -22
13 -29 28 -129 64 -203 73 -22 3 -45 6 -52 9 -6 2 -13 2 -15 1z"/>
</g>
</svg>
